<svg width="1058" height="785" viewBox="0 0 1058 785" fill="none" xmlns="http://www.w3.org/2000/svg">
<g id="undraw_Ride_a_bicycle_2yok 1" clip-path="url(#clip0)">
<path id="Vector" d="M82.85 602.11C82.85 605.97 82.42 609.11 81.85 609.11C81.28 609.11 80.85 605.98 80.85 602.11C80.85 598.24 81.39 600.11 81.92 600.11C82.45 600.11 82.85 598.26 82.85 602.11Z" fill="#FFD037"/>
<path id="Vector_2" d="M88.17 606.72C84.78 608.57 81.83 609.72 81.58 609.21C81.33 608.7 83.86 606.86 87.25 605.02C90.64 603.18 89.3 604.52 89.56 605.02C89.82 605.52 91.56 604.87 88.17 606.72Z" fill="#FFD037"/>
<path id="Vector_3" d="M7.40997 602.11C7.40997 605.97 7.83997 609.11 8.40997 609.11C8.97997 609.11 9.40997 605.98 9.40997 602.11C9.40997 598.24 8.86997 600.11 8.33997 600.11C7.80997 600.11 7.40997 598.26 7.40997 602.11Z" fill="#FFD037"/>
<path id="Vector_4" d="M2.05997 606.72C5.44997 608.57 8.39998 609.72 8.64998 609.21C8.89998 608.7 6.36997 606.86 2.97997 605.02C-0.410027 603.18 0.929975 604.52 0.669975 605.02C0.409975 605.52 -1.33003 604.87 2.05997 606.72Z" fill="#FFD037"/>
<g id="man">
<path id="Vector_5" d="M373.06 552.89L330.353 510.746L317.007 524.27L359.714 566.414L373.06 552.89Z" fill="#6C63FF"/>
<path id="Vector_6" opacity="0.1" d="M373.06 552.89L330.353 510.746L317.007 524.27L359.714 566.414L373.06 552.89Z" fill="black"/>
<path id="Vector_7" d="M340.54 490.577C340.54 490.577 365.33 477.497 374.91 469.077C380.677 464.031 386.878 459.503 393.44 455.547L424.54 436.617L489.54 431.617L492.54 442.617C492.54 442.617 497.54 458.617 447.54 472.617C397.54 486.617 372.54 508.617 372.54 508.617C372.54 508.617 340.54 519.577 340.54 490.577Z" fill="#DB8B8B"/>
<path id="Vector_8" opacity="0.1" d="M375.19 506.447C373.42 507.797 372.54 508.577 372.54 508.577C372.54 508.577 340.54 519.577 340.54 490.577C340.54 490.577 342.09 489.757 344.54 488.387C347.015 492.417 350.483 495.746 354.611 498.055C358.739 500.365 363.39 501.577 368.12 501.577H371.51L375.19 506.447Z" fill="black"/>
<path id="Vector_9" opacity="0.05" d="M491.6 448.137C488.82 454.027 479.23 463.707 447.54 472.577C406.93 483.947 382.81 500.577 375.19 506.447C373.42 507.797 372.54 508.577 372.54 508.577C372.54 508.577 340.54 519.577 340.54 490.577C340.54 490.577 342.09 489.757 344.54 488.387C351.97 484.317 367.7 475.387 374.88 469.037C380.646 463.989 386.847 459.462 393.41 455.507L424.51 436.577L436.09 435.687L489.51 431.577L492.51 442.577C492.51 442.577 493.21 444.727 491.6 448.137Z" fill="black"/>
<path id="Vector_10" d="M341.04 484.077L314.54 501.577L392.14 566.577C392.14 566.577 403.54 559.577 397.54 551.577C397.54 551.577 377.54 534.577 376.54 510.577L370.54 502.577H367.15C361.418 502.577 355.827 500.798 351.149 497.484C346.472 494.17 342.94 489.485 341.04 484.077V484.077Z" fill="#ABB1D1"/>
<path id="Vector_11" opacity="0.1" d="M491.6 448.137C475.6 440.407 436.54 439.577 436.54 439.577L436.12 435.687L489.54 431.577L492.54 442.577C492.54 442.577 493.21 444.727 491.6 448.137Z" fill="black"/>
<path id="Vector_12" d="M436.54 437.577C436.54 437.577 483.54 438.577 495.54 448.577L489.54 327.577H424.54L436.54 437.577Z" fill="#ABB1D1"/>
<path id="Vector_13" opacity="0.05" d="M436.54 437.077C436.54 437.077 483.54 438.077 495.54 448.077L489.54 327.077H424.54L436.54 437.077Z" fill="black"/>
<path id="Vector_14" d="M474.3 363.537C474.3 363.537 591.95 359.537 594.35 374.747C596.75 389.957 476.7 383.547 476.7 383.547C476.7 383.547 467.1 373.937 474.3 363.537Z" fill="#535461"/>
<path id="Vector_15" opacity="0.05" d="M474.3 363.537C474.3 363.537 591.95 359.537 594.35 374.747C596.75 389.957 476.7 383.547 476.7 383.547C476.7 383.547 467.1 373.937 474.3 363.537Z" fill="black"/>
<path id="Vector_16" d="M379.06 424.367H358.25V605.247H379.06V424.367Z" fill="#6C63FF"/>
<path id="Vector_17" opacity="0.1" d="M379.06 424.357V438.287C372.14 439.187 365.06 439.757 358.25 439.977V424.357H379.06Z" fill="black"/>
<path id="Vector_18" d="M377.5 409.367C374.58 409.141 371.676 408.75 368.8 408.197C357.52 406.037 329.08 401.507 321.43 409.197C311.83 418.797 315.03 435.607 340.64 438.007C366.25 440.407 410.27 434.007 419.08 424.397C419.08 424.357 403.15 411.337 377.5 409.367Z" fill="#535461"/>
<path id="Vector_19" d="M373.46 473.987L591.96 405.957L599.16 422.767L375.06 499.597L373.46 473.987Z" fill="#6C63FF"/>
<path id="Vector_20" d="M438.29 581.237L595.96 425.967L604.76 438.767L454.29 595.637L438.29 581.237Z" fill="#6C63FF"/>
<path id="Vector_21" opacity="0.1" d="M639.64 528.437C634.644 529.729 629.772 531.459 625.08 533.607L615.52 506.897C620.537 504.71 625.704 502.882 630.98 501.427L639.64 528.437Z" fill="black"/>
<path id="Vector_22" d="M666.39 606.847L655.19 613.247L577.05 394.917L573.55 385.147L591.96 374.737L596.57 389.117L666.39 606.847Z" fill="#6C63FF"/>
<path id="Vector_23" opacity="0.1" d="M596.57 389.117L577.05 394.917L573.55 385.147L591.96 374.737L596.57 389.117Z" fill="black"/>
<path id="Vector_24" d="M477.5 405.957L587.15 368.337C587.15 368.337 606.36 370.737 599.15 386.747L488.71 419.557C488.71 419.557 471.91 421.157 477.5 405.957Z" fill="#535461"/>
<path id="Vector_25" opacity="0.1" d="M353.85 614.447C353.849 620.581 353.374 626.706 352.43 632.767C342.83 632.077 332.91 631.077 323.19 630.077C325.349 618.186 325.081 605.981 322.4 594.197C331.87 592.197 341.54 590.287 350.98 588.557C352.893 597.054 353.855 605.737 353.85 614.447V614.447Z" fill="black"/>
<path id="Vector_26" opacity="0.1" d="M379.06 583.967V605.237H358.25V587.237C365.45 585.987 372.45 584.877 379.06 583.967Z" fill="black"/>
<path id="Vector_27" d="M244.6 614.077C244.6 614.077 412.68 570.077 426.28 586.867C439.88 603.657 454.29 626.077 411.91 634.077C369.53 642.077 241.43 620.467 241.43 620.467L244.6 614.077Z" fill="#6C63FF"/>
<path id="Vector_28" opacity="0.1" d="M327.27 539.957L305.91 559.507C302.127 554.651 297.851 550.2 293.15 546.227L313.09 525.397C318.224 529.836 322.968 534.707 327.27 539.957V539.957Z" fill="black"/>
<path id="Vector_29" d="M239 605.247L364.65 473.987L368.66 504.397L245.4 617.247L239 605.247Z" fill="#6C63FF"/>
<path id="Vector_30" opacity="0.1" d="M251.34 628.27C258.415 628.27 264.15 622.535 264.15 615.46C264.15 608.385 258.415 602.65 251.34 602.65C244.265 602.65 238.53 608.385 238.53 615.46C238.53 622.535 244.265 628.27 251.34 628.27Z" fill="black"/>
<path id="Vector_31" opacity="0.1" d="M434.28 626.857C448.424 626.857 459.89 615.391 459.89 601.247C459.89 587.103 448.424 575.637 434.28 575.637C420.136 575.637 408.67 587.103 408.67 601.247C408.67 615.391 420.136 626.857 434.28 626.857Z" fill="black"/>
<path id="Vector_32" d="M435.89 626.857C450.034 626.857 461.5 615.391 461.5 601.247C461.5 587.103 450.034 575.637 435.89 575.637C421.746 575.637 410.28 587.103 410.28 601.247C410.28 615.391 421.746 626.857 435.89 626.857Z" fill="#535461"/>
<path id="Vector_33" d="M429.052 599.323L429.044 599.329C426.037 601.578 425.422 605.839 427.671 608.847L447.997 636.027C450.246 639.035 454.508 639.65 457.515 637.4L457.523 637.394C460.531 635.145 461.145 630.884 458.896 627.876L438.57 600.696C436.321 597.688 432.06 597.074 429.052 599.323Z" fill="#6C63FF"/>
<path id="Vector_34" d="M551.54 245.577L549.16 275.687C548.886 279.501 548.936 283.331 549.31 287.137C549.62 290.507 549.31 296.407 546.01 305.407C541.773 316.904 539.583 329.054 539.54 341.307V375.577L516.54 371.577C516.54 371.577 517.54 323.577 513.54 315.577C509.54 307.577 516.54 236.577 516.54 236.577L551.54 245.577Z" fill="#DB8B8B"/>
<path id="Vector_35" opacity="0.05" d="M550.36 260.497L549.16 275.687C548.89 279.498 548.943 283.325 549.32 287.127C549.63 290.497 549.32 296.397 546.02 305.407C541.783 316.904 539.593 329.054 539.55 341.307V375.577L516.55 371.577C516.55 371.577 517.55 323.577 513.55 315.577C510.72 309.907 513.4 272.637 515.21 251.367C515.96 242.617 516.55 236.577 516.55 236.577L551.55 245.577L550.36 260.497Z" fill="black"/>
<path id="Vector_36" d="M437.56 475.577L428.91 524.777C427.819 531.346 426.146 537.804 423.91 544.077C418.84 557.937 422.08 577.367 424.54 587.967C425.63 592.647 426.54 595.607 426.54 595.607L400.54 609.607L392.54 603.607V599.607L391.54 510.607C385.54 496.607 387.54 475.607 391.54 467.607C392.677 464.978 393.477 462.216 393.92 459.387C395.92 448.667 396.54 433.607 396.54 433.607C396.54 433.607 412.54 406.607 431.54 424.607C438.54 431.237 441.2 439.907 441.76 448.207C442.74 462.417 437.56 475.577 437.56 475.577Z" fill="#DB8B8B"/>
<path id="Vector_37" opacity="0.1" d="M441.76 448.177C427.89 456.417 403.76 458.747 393.92 459.357C395.92 448.637 396.54 433.577 396.54 433.577C396.54 433.577 412.54 406.577 431.54 424.577C438.54 431.207 441.2 439.877 441.76 448.177Z" fill="black"/>
<path id="Vector_38" d="M475.54 423.577C464.906 429.24 454.857 435.939 445.54 443.577C429.54 456.577 389.54 457.577 389.54 457.577V442.577C390.54 424.577 373.54 404.577 350.54 348.577C335.85 312.817 339.92 292.577 344.78 282.577C347.54 276.927 350.54 274.577 350.54 274.577L475.54 298.577L480.01 311.977L489.54 340.577C489.54 340.577 454.54 342.577 448.54 345.577C442.54 348.577 446.54 375.577 446.54 375.577C440.54 403.577 475.54 423.577 475.54 423.577Z" fill="#ABB1D1"/>
<path id="Vector_39" opacity="0.1" d="M551.54 245.577L550.36 260.497C532.96 265.497 520.54 249.577 520.54 249.577C518.725 250.063 516.942 250.661 515.2 251.367C515.95 242.617 516.54 236.577 516.54 236.577L551.54 245.577Z" fill="black"/>
<path id="Vector_40" opacity="0.1" d="M480.01 311.977C479.54 316.647 479.54 319.577 479.54 319.577C479.54 319.577 456.54 338.577 417.54 309.577C378.54 280.577 343.54 288.577 343.54 288.577C343.54 288.577 343.95 286.257 344.78 282.577C347.54 276.927 350.54 274.577 350.54 274.577L475.54 298.577L480.01 311.977Z" fill="black"/>
<path id="Vector_41" d="M565.02 206.527C562.41 226.877 561.54 252.527 561.54 252.527C538.54 270.527 520.54 247.527 520.54 247.527C498.82 253.357 488.61 272.367 483.8 288.957C481.224 297.93 479.792 307.194 479.54 316.527C479.54 316.527 473.46 321.527 462.26 322.527C451.67 323.417 436.49 320.657 417.54 306.527C378.54 277.527 343.54 285.527 343.54 285.527C343.54 285.527 350.54 245.527 366.54 233.527C382.54 221.527 394.54 206.527 414.54 160.527C434.54 114.527 475.54 125.527 475.54 125.527C475.54 125.527 477.54 116.527 514.54 125.527C523.552 127.889 531.894 132.308 538.91 138.437C558.7 155.077 568.3 180.887 565.02 206.527Z" fill="white"/>
<path id="Vector_42" d="M527.91 148.077C527.86 149.407 527.75 150.887 527.57 152.537C525.57 170.537 523.57 168.537 501.57 172.537C487.89 175.027 480.78 163.597 477.36 154.597C476.122 151.336 475.188 147.969 474.57 144.537L522.57 136.537C522.57 136.537 528.32 134.927 527.91 148.077Z" fill="#DB8B8B"/>
<path id="Vector_43" opacity="0.05" d="M483.8 289.007C481.224 297.98 479.792 307.244 479.54 316.577C479.54 316.577 473.46 321.577 462.26 322.577C461.944 321.94 461.703 321.269 461.54 320.577C459.54 311.577 444.54 295.577 444.54 295.577C434.54 286.577 432.54 270.577 432.54 270.577L416.04 222.077L410.54 217.577C410.54 217.577 433.54 199.577 453.54 214.577C473.54 229.577 467.54 261.577 467.54 261.577L471.54 272.577C475.69 276.077 479.91 282.247 483.8 289.007Z" fill="black"/>
<path id="Vector_44" d="M413.54 216.577L435.54 269.577C435.54 269.577 437.54 285.577 447.54 294.577C447.54 294.577 462.54 310.577 464.54 319.577C466.54 328.577 494.54 352.577 494.54 352.577C494.54 352.577 520.54 376.577 522.54 385.577C522.54 385.577 546.54 392.577 543.54 406.577C543.54 406.577 561.54 388.577 543.54 371.577C525.54 354.577 501.54 319.577 501.54 319.577C501.54 319.577 487.54 282.577 474.54 271.577L470.54 260.577C470.54 260.577 476.54 228.577 456.54 213.577C436.54 198.577 413.54 216.577 413.54 216.577Z" fill="#DB8B8B"/>
<path id="Vector_45" opacity="0.1" d="M426.54 595.577L400.54 609.577L392.54 603.577V599.577C401.524 598.939 410.253 596.305 418.09 591.867C420.49 590.507 422.75 589.167 424.56 587.987C425.61 592.617 426.54 595.577 426.54 595.577Z" fill="black"/>
<path id="Vector_46" opacity="0.1" d="M456.54 174.577L470.54 229.577C470.54 229.577 427.54 236.577 418.54 229.577C409.54 222.577 392.54 220.577 392.54 220.577C392.54 220.577 410.54 168.577 420.54 162.577C430.54 156.577 456.54 174.577 456.54 174.577Z" fill="black"/>
<path id="Vector_47" d="M456.54 172.577L470.54 227.577C470.54 227.577 427.54 234.577 418.54 227.577C409.54 220.577 392.54 218.577 392.54 218.577C392.54 218.577 410.54 166.577 420.54 160.577C430.54 154.577 456.54 172.577 456.54 172.577Z" fill="white"/>
<path id="Vector_48" opacity="0.1" d="M527.91 147.077C525.109 150.943 521.547 154.195 517.443 156.634C513.338 159.072 508.778 160.645 504.043 161.256C499.308 161.866 494.499 161.502 489.91 160.185C485.321 158.868 481.05 156.626 477.36 153.597C476.122 150.336 475.188 146.969 474.57 143.537L522.57 135.537C522.57 135.537 528.32 133.927 527.91 147.077Z" fill="black"/>
<path id="Vector_49" d="M534.54 125.577C534.54 134.859 530.852 143.762 524.289 150.325C517.725 156.889 508.823 160.577 499.54 160.577C490.257 160.577 481.355 156.889 474.791 150.325C468.228 143.762 464.54 134.859 464.54 125.577C464.54 124.997 464.54 124.417 464.54 123.837C464.771 114.554 468.68 105.743 475.406 99.3428C482.133 92.9422 491.127 89.476 500.41 89.7067C509.693 89.9375 518.503 93.8462 524.904 100.573C531.305 107.3 534.771 116.294 534.54 125.577V125.577Z" fill="#DB8B8B"/>
<path id="Vector_50" opacity="0.1" d="M534.54 125.577C534.543 128.802 534.099 132.013 533.22 135.117C530.515 135.706 527.693 135.448 525.14 134.377C521.4 132.907 518.19 130.377 514.6 128.557C504.49 123.437 492.46 124.447 481.26 126.137C475.7 126.977 469.39 127.757 465.02 124.217C464.87 124.098 464.726 123.971 464.59 123.837C464.821 114.554 468.73 105.743 475.456 99.3428C482.183 92.9422 491.177 89.476 500.46 89.7067C509.743 89.9375 518.553 93.8462 524.954 100.573C531.355 107.3 534.821 116.294 534.59 125.577H534.54Z" fill="black"/>
<path id="Vector_51" opacity="0.05" d="M371.04 233.077C371.04 233.077 397.04 240.077 405.04 258.077C413.04 276.077 434.68 279.367 434.68 279.367" fill="black"/>
<path id="Vector_52" d="M469.04 629.077H409.04V648.077H469.04V629.077Z" fill="#6C63FF"/>
<path id="Vector_53" opacity="0.1" d="M469.04 629.077H409.04V648.077H469.04V629.077Z" fill="black"/>
<path id="Vector_54" d="M418.05 593.817C423.42 590.817 428.13 587.817 428.54 586.577C428.54 586.577 442.09 600.877 454.16 605.317C458.219 606.816 462.104 608.747 465.75 611.077C470.53 614.077 477.35 617.607 483.54 617.607C483.54 617.607 497.54 629.607 470.54 631.607C443.54 633.607 380.54 626.607 380.54 626.607L384.54 601.607C396.227 602.292 407.864 599.587 418.05 593.817Z" fill="#ABB1D1"/>
<path id="Vector_55" d="M439.22 103.927C441.35 110.607 451.58 110.817 456.83 115.737C459.56 118.297 460.83 122.077 463.83 124.357C468 127.537 474.02 126.837 479.33 126.077C490.02 124.557 501.5 123.647 511.14 128.257C514.56 129.887 517.63 132.167 521.2 133.497C524.77 134.827 529.2 134.987 532.1 132.627C534.42 130.737 535.27 127.627 537.37 125.547C539 123.907 541.27 122.987 543.13 121.547C547.21 118.467 548.97 113.447 550.13 108.647C552.53 98.7667 553.22 88.1167 549.13 78.7467C545.04 69.3767 535.2 61.7467 524.46 62.2367C521.17 62.3867 517.96 63.2367 514.68 63.5967C506.13 64.4667 497.68 61.5967 489.1 61.1067C486.611 60.8039 484.087 61.1483 481.77 62.1067C480.023 63.0775 478.517 64.4273 477.36 66.0567C473.432 71.2021 470.742 77.1836 469.5 83.5367C468.5 88.3267 468.45 92.6667 462.58 93.4067C455.91 94.2867 434.71 89.7967 439.22 103.927Z" fill="#472727"/>
</g>
<g id="leftWheel">
<path id="Vector_56" d="M255.725 715.778L249.455 617.838L249.325 617.628L243.005 619.828L213.925 704.678L167.675 671.888L241.345 618.478L241.415 618.268L241.835 618.118L246.585 614.668L169.345 571.358L150.425 592.158L153.425 611.658L242.245 613.278V615.278L151.765 613.658L148.345 591.518L174.245 563.058L212.995 517.858L213.685 519.728L221.885 510.728L252.345 516.188V514.978L254.345 515.038V516.548L299.705 524.668L257.415 609.278L251.245 613.748V614.248V614.808L349.045 580.728L337.435 671.938L254.435 619.068L251.515 617.428L300.455 696.308L255.725 715.778ZM251.725 621.438L257.575 712.818L297.625 695.438L251.725 621.438ZM171.145 671.868L212.935 701.498L240.275 621.758L171.145 671.868ZM253.465 616.208L255.555 617.378L335.905 668.578L346.705 583.708L253.465 616.208ZM246.365 609.008L248.875 613.058L249.315 612.738L252.315 518.208L222.575 512.888L214.415 521.888L246.365 609.008ZM170.945 569.948L245.785 611.948L244.485 609.818L212.905 523.548L175.715 564.418L170.945 569.948ZM254.345 518.558L251.345 611.278L255.865 607.998L296.775 526.178L254.345 518.558Z" fill="#535461"/>
<path id="Vector_57" d="M365.415 588.738C361.405 570.919 353.285 554.283 341.705 540.158C337.406 534.909 332.666 530.038 327.535 525.598C307.809 508.567 282.986 498.568 256.962 497.17C230.938 495.771 205.187 503.053 183.749 517.873C162.311 532.693 146.401 554.211 138.515 579.05C130.629 603.89 131.214 630.645 140.178 655.116C149.142 679.587 165.978 700.39 188.042 714.258C210.107 728.127 236.152 734.277 262.09 731.743C288.028 729.208 312.39 718.134 331.353 700.257C350.317 682.379 362.807 658.712 366.865 632.968C367.809 626.907 368.284 620.783 368.285 614.648C368.292 605.932 367.329 597.242 365.415 588.738ZM250.225 703.088C231.993 703.069 214.209 697.435 199.292 686.953C184.374 676.47 173.047 661.648 166.851 644.501C160.655 627.354 159.89 608.715 164.66 591.118C169.43 573.521 179.505 557.82 193.513 546.15C207.521 534.48 224.783 527.408 242.953 525.895C261.122 524.381 279.316 528.501 295.062 537.693C310.807 546.884 323.34 560.703 330.956 577.268C338.571 593.834 340.9 612.343 337.625 630.278C333.875 650.722 323.076 669.203 307.107 682.506C291.137 695.809 271.01 703.093 250.225 703.088V703.088Z" fill="#535461"/>
<path id="Vector_58" d="M250.225 627.058C257.3 627.058 263.035 621.323 263.035 614.248C263.035 607.174 257.3 601.438 250.225 601.438C243.15 601.438 237.415 607.174 237.415 614.248C237.415 621.323 243.15 627.058 250.225 627.058Z" fill="#535461"/>
</g>
<g id="wheel">
<path id="Vector_59" d="M677.847 707.78L671.587 609.88L671.457 609.67L665.137 611.87L636.047 696.68L589.797 663.88L663.487 610.47L663.557 610.26L663.977 610.11L668.727 606.66L591.487 563.35L572.557 584.15L575.557 603.65L664.357 605.23V607.23L573.877 605.61L570.477 583.5L596.367 555.05L635.087 509.88L635.777 511.75L643.977 502.75L674.517 508.22V507.01L676.517 507.07V508.58L721.877 516.7L679.547 601.35L673.377 605.82V606.32V606.88L771.187 572.8L759.577 664.01L676.577 611.14L673.657 609.5L722.597 688.39L677.847 707.78ZM673.847 613.44L679.697 704.82L719.747 687.44L673.847 613.44ZM593.277 663.88L635.067 693.51L662.407 613.77L593.277 663.88ZM675.597 608.22L677.687 609.39L758.037 660.59L768.837 575.72L675.597 608.22ZM668.497 601.02L671.007 605.07L671.447 604.75L674.447 510.22L644.707 504.88L636.547 513.88L668.497 601.02ZM593.107 561.97L667.947 603.97L666.647 601.84L635.067 515.57L597.867 556.45L593.107 561.97ZM676.477 510.58L673.477 603.27L677.997 599.99L718.907 518.17L676.477 510.58Z" fill="#535461"/>
<path id="Vector_60" d="M672.757 489C662.144 488.988 651.578 490.415 641.347 493.24C636.071 494.695 630.904 496.523 625.887 498.71C599.157 510.297 577.674 531.387 565.594 557.898C553.514 584.41 551.697 614.459 560.492 642.233C569.287 670.008 588.071 693.533 613.209 708.259C638.348 722.984 668.054 727.863 696.582 721.952C725.109 716.04 750.431 699.759 767.648 676.257C784.865 652.755 792.754 623.702 789.789 594.72C786.823 565.738 773.215 538.885 751.595 519.356C729.975 499.828 701.881 489.012 672.747 489H672.757ZM672.357 695.09C652.076 695.082 632.408 688.137 616.62 675.407C600.831 662.678 589.872 644.931 585.562 625.113C581.252 605.295 583.851 584.599 592.928 566.463C602.004 548.326 617.011 533.84 635.457 525.41C640.149 523.262 645.021 521.532 650.017 520.24C662.229 517.07 674.977 516.537 687.411 518.678C699.845 520.818 711.681 525.581 722.13 532.652C732.58 539.722 741.404 548.937 748.015 559.683C754.627 570.429 758.873 582.46 760.473 594.975C762.073 607.49 760.989 620.202 757.293 632.265C753.598 644.329 747.375 655.467 739.04 664.939C730.704 674.41 720.447 681.998 708.951 687.196C697.455 692.395 684.984 695.086 672.367 695.09H672.357Z" fill="#535461"/>
<path id="Vector_61" d="M672.357 619.06C679.432 619.06 685.167 613.325 685.167 606.25C685.167 599.175 679.432 593.44 672.357 593.44C665.282 593.44 659.547 599.175 659.547 606.25C659.547 613.325 665.282 619.06 672.357 619.06Z" fill="#535461"/>
</g>
</g>
<defs>
<clipPath id="clip0">
<rect width="1057.7" height="784.98" fill="white"/>
</clipPath>
</defs>
</svg>
